<?xml version="1.0" standalone="no"?>
<!DOCTYPE svg PUBLIC "-//W3C//DTD SVG 1.1//EN" "http://www.w3.org/Graphics/SVG/1.1/DTD/svg11.dtd">
<svg t="1599616113623" class="icon" viewBox="0 0 1024 1024" version="1.1" xmlns="http://www.w3.org/2000/svg" p-id="4062" xmlns:xlink="http://www.w3.org/1999/xlink" width="256" height="256">
<defs>
<style type="text/css"></style>
</defs>
<path d="M231.432393 982.032787H898.098361c46.356984 0 83.934426-37.577443 83.934426-83.934426V249.864393l-41.967213 11.901902v601.860197c0 42.219016-34.224262 76.439082-76.439082 76.439082H231.432393c-8.641049-24.450098-31.958033-41.967213-59.366819-41.967213-34.765639 0-62.95082 28.18518-62.95082 62.950819 0 34.765639 28.18518 62.95082 62.95082 62.95082 27.408787 0 50.72577-17.517115 59.366819-41.967213zM792.567607 41.967213H125.901639C79.544656 41.967213 41.967213 79.544656 41.967213 125.901639v643.642754l41.967213-14.772459V160.373508C83.934426 118.154492 118.158689 83.934426 160.373508 83.934426h632.194099c8.641049 24.450098 31.958033 41.967213 59.366819 41.967213 34.765639 0 62.95082-28.18518 62.95082-62.950819 0-34.765639-28.18518-62.95082-62.95082-62.95082-27.408787 0-50.72577 17.517115-59.366819 41.967213z" fill="#334966" p-id="4063"></path>
<path d="M541.67082 392.17941C505.759475 419.798033 482.622951 463.192131 482.622951 512c0 48.803672 23.140721 92.201967 59.047869 119.82059C506.300852 676.431738 451.638557 705.04918 390.295082 705.04918c-106.617705 0-193.04918-86.431475-193.04918-193.04918s86.431475-193.04918 193.04918-193.04918c61.347672 0 116.009967 28.617443 151.375738 73.22859z" fill="#00A4FF" p-id="4064"></path>
<path d="M633.704918 705.04918c-106.617705 0-193.04918-86.431475-193.04918-193.04918s86.431475-193.04918 193.04918-193.04918 193.04918 86.431475 193.04918 193.04918-86.431475 193.04918-193.04918 193.04918z m0-41.967213c83.439213 0 151.081967-67.642754 151.081967-151.081967s-67.642754-151.081967-151.081967-151.081967-151.081967 67.642754-151.081967 151.081967 67.642754 151.081967 151.081967 151.081967z" fill="#334966" p-id="4065"></path>
</svg>