<?xml version="1.0" encoding="utf-8"?>
<!-- Generator: Adobe Illustrator 23.0.2, SVG Export Plug-In . SVG Version: 6.00 Build 0)  -->
<svg version="1.1" id="图层_1" xmlns="http://www.w3.org/2000/svg" xmlns:xlink="http://www.w3.org/1999/xlink" x="0px" y="0px"
	 viewBox="0 0 779.12 503.92" style="enable-background:new 0 0 779.12 503.92;" xml:space="preserve">
<style type="text/css">
	.st0{fill:#206BAB;}
	.st1{fill:#EEAC38;}
	.st2{fill:#F0BB5D;}
	.st3{fill:#74A2CA;}
	.st4{fill:#FFFFFF;}
	.st5{fill:#1C1C1A;}
</style>
<g>
	<path class="st0" d="M752.56,410.08c0,0-162.48,82-362.96,82c-200.48,0-362.96-82-362.96-82s162.48-82,362.96-82
		C590.08,328.08,752.56,410.08,752.56,410.08L752.56,410.08z M752.56,410.08"/>
	<path class="st1" d="M389.6,328.08c49.84,0,97.28,5.04,140.48,12.64v-47.76H249.04v47.76C292.32,333.12,339.76,328.08,389.6,328.08
		L389.6,328.08z M389.6,328.08"/>
	<path class="st2" d="M412.96,35.36c0,12.96-10.48,23.44-23.44,23.44c-12.96,0-23.44-10.48-23.44-23.44s10.48-23.44,23.44-23.44
		C402.48,11.92,412.96,22.4,412.96,35.36L412.96,35.36z M412.96,35.36"/>
	<path class="st3" d="M272.48,292.96c0-64.64,52.4-117.12,117.12-117.12c64.64,0,117.12,52.4,117.12,117.12H272.48z M272.48,292.96"
		/>
	<path class="st4" d="M284.16,398.08h23.44v23.84h-23.44V398.08z M331.04,398.08h23.44v23.84h-23.44V398.08z M377.84,398.08h23.44
		v23.84h-23.44V398.08z M424.72,398.08h23.44v23.84h-23.44V398.08z M471.52,398.08h23.44v23.84h-23.44V398.08z M471.52,398.08"/>
	<path class="st5" d="M757.92,399.36c-1.68-0.88-42.24-21.2-108.16-41.68c-29.04-9.04-65.84-18.96-107.76-26.8v-49.84h-24
		c-6.08-65.6-61.36-117.12-128.48-117.12c-67.12,0-122.4,51.52-128.48,117.12h-24v49.84c-41.92,7.84-78.72,17.76-107.76,26.8
		c-65.84,20.56-106.4,40.88-108.16,41.68L0,410l21.2,10.72c1.68,0.88,42.24,21.2,108.16,41.76
		c60.72,18.88,155.12,41.44,260.24,41.44c105.12,0,199.52-22.56,260.24-41.52c65.84-20.56,106.4-40.88,108.16-41.76L779.12,410
		L757.92,399.36z M389.6,187.84c53.92,0,98.48,40.8,104.48,93.2H285.12C291.04,228.64,335.6,187.84,389.6,187.84L389.6,187.84z
		 M261.04,304.88h257.12v21.84c-39.6-6.32-83.12-10.56-128.56-10.56c-45.44,0-88.96,4.24-128.56,10.56V304.88z M389.6,480.08
		c-127.68,0-240.72-34.24-304.08-58.08h175.2v-23.92H85.52C148.88,374.24,261.92,340,389.6,340c127.68,0,240.72,34.24,304.08,58.08
		H518.4V422h175.28C630.32,445.84,517.28,480.08,389.6,480.08L389.6,480.08z M377.6,68.64v60.16h-11.44v23.92h46.8V128.8h-11.44
		V68.64c13.6-4.88,23.44-18,23.44-33.28C424.96,15.84,409.12,0,389.6,0c-19.52,0-35.36,15.84-35.36,35.36
		C354.24,50.64,364,63.76,377.6,68.64L377.6,68.64z M389.6,23.92c6.32,0,11.44,5.12,11.44,11.44c0,6.32-5.12,11.44-11.44,11.44
		c-6.32,0-11.44-5.12-11.44-11.44C378.08,29.04,383.28,23.92,389.6,23.92L389.6,23.92z M389.6,23.92"/>
	<path class="st4" d="M339.52,266.24l-16.88-16.88l35.12-35.12l16.88,16.88L339.52,266.24z M421.44,266.24l-16.88-16.88l35.12-35.12
		l16.88,16.88L421.44,266.24z M421.44,266.24"/>
</g>
</svg>
