<?xml version="1.0" standalone="no"?>
<!DOCTYPE svg PUBLIC "-//W3C//DTD SVG 1.1//EN" "http://www.w3.org/Graphics/SVG/1.1/DTD/svg11.dtd">
<svg t="1599806254803" class="icon" viewBox="0 0 1024 1024" version="1.1" xmlns="http://www.w3.org/2000/svg" p-id="2736" xmlns:xlink="http://www.w3.org/1999/xlink" width="256" height="256">
<defs><style type="text/css"></style></defs>
<path d="M320.945 179.846H825.1c48.077 0 80.562 22.09 98.752 58.472 9.097 19.491 12.995 40.28 12.995 54.574l-1.3 7.796-83.16 292.357c-3.898 15.593-19.49 23.39-35.082 19.49-15.593-3.897-23.39-19.49-19.49-35.083l83.159-292.357-1.3 7.796c0-6.497-1.3-18.191-6.497-28.586-7.796-16.892-22.089-25.987-46.778-25.987H317.046l40.281 40.28c11.694 11.694 11.694 29.886 0 40.28-11.694 11.695-29.885 11.695-40.281 0l-87.057-87.057c-11.695-11.695-11.695-29.885 0-40.281l87.057-88.357c11.694-11.695 29.886-11.695 40.281 0 11.694 11.694 11.694 29.886 0 40.28l-36.382 36.383zM713.636 840.154H209.479c-48.077 0-80.561-22.089-98.752-58.472-9.095-19.49-12.994-40.28-12.994-54.573l1.3-7.795 83.16-292.359c3.897-15.593 19.49-23.389 35.083-19.491 15.592 3.898 23.388 19.491 19.49 35.083l-81.861 292.357 1.3-7.796c0 6.497 1.299 18.191 6.497 28.586 7.796 16.892 22.089 25.987 46.777 25.987h509.354l-40.281-40.28c-11.694-11.693-11.694-29.886 0-40.28 11.693-11.693 29.886-11.693 40.281 0l87.057 87.058c11.694 11.693 11.694 29.886 0 40.281l-88.356 88.356c-11.695 11.693-29.886 11.693-40.281 0-11.693-11.694-11.693-29.885 0-40.28l36.383-36.382z" fill="#808080" p-id="2737"></path>
<path d="M426.094 632.331c-16.568 0-30-13.432-30-30V349.845c0-16.568 13.432-30 30-30s30 13.432 30 30v252.486c0 16.568-13.432 30-30 30zM552.588 632.331c-16.568 0-30-13.432-30-30V437.84c0-16.568 13.432-30 30-30s30 13.432 30 30v164.491c0 16.568-13.432 30-30 30zM679.082 632.331c-16.568 0-30-13.432-30-30v-91.994c0-16.568 13.432-30 30-30s30 13.432 30 30v91.994c0 16.568-13.432 30-30 30z" fill="#33DEB4" opacity=".4" p-id="2738"></path>
<path d="M386.094 672.331c-16.568 0-30-13.432-30-30V389.845c0-16.568 13.432-30 30-30s30 13.432 30 30v252.486c0 16.568-13.431 30-30 30zM512.588 672.331c-16.568 0-30-13.432-30-30V477.84c0-16.568 13.432-30 30-30s30 13.432 30 30v164.491c0 16.568-13.432 30-30 30zM639.082 672.331c-16.568 0-30-13.432-30-30v-91.994c0-16.568 13.432-30 30-30s30 13.432 30 30v91.994c0 16.568-13.432 30-30 30z" fill="#33DEB4" p-id="2739"></path></svg>